<svg xmlns="http://www.w3.org/2000/svg" width="1200" height="630" viewBox="0 0 1200 630">
<rect width="1200" height="630" fill="#08110b"/>
<rect y="0" width="1200" height="230" fill="#76c9ef"/>
<rect y="230" width="1200" height="70" fill="#6ea758"/>
<rect y="300" width="1200" height="330" fill="#6f5037"/>
<g opacity=".18" stroke="#fff"><path d="M0 0V630M64 0V630M128 0V630M192 0V630M256 0V630M320 0V630M384 0V630M448 0V630M512 0V630M576 0V630M640 0V630M704 0V630M768 0V630M832 0V630M896 0V630M960 0V630M1024 0V630M1088 0V630M1152 0V630"/><path d="M0 64H1200M0 128H1200M0 192H1200M0 256H1200M0 320H1200M0 384H1200M0 448H1200M0 512H1200M0 576H1200"/></g>
<rect x="760" y="112" width="230" height="230" fill="#4f9a4b" stroke="#326330" stroke-width="18"/>
<rect x="835" y="320" width="74" height="180" fill="#795238" stroke="#523723" stroke-width="16"/>
<rect x="93" y="78" width="88" height="88" fill="#79df62" stroke="#2d6334" stroke-width="12"/>
<text x="137" y="138" font-family="Arial,sans-serif" font-size="56" font-weight="900" text-anchor="middle" fill="#10200d">M</text>
<text x="92" y="230" font-family="Arial,sans-serif" font-size="92" font-weight="900" fill="#f2fff4">MAINCASH</text>
<text x="92" y="302" font-family="Arial,sans-serif" font-size="38" font-weight="700" fill="#10200d">MINECRAFT EXPERIENCE</text>
<rect x="92" y="352" width="488" height="62" fill="#13241a" stroke="#34513c" stroke-width="6"/>
<text x="116" y="393" font-family="Arial,sans-serif" font-size="26" font-weight="800" fill="#dfffe3">JAVA + BEDROCK · TIENDA · ESTADO EN VIVO</text>
<text x="92" y="500" font-family="Arial,sans-serif" font-size="24" font-weight="700" fill="#f2fff4">Concepto no oficial · DesarrollAMO</text>
<text x="92" y="545" font-family="Arial,sans-serif" font-size="21" fill="#d4e6d8">maincash.netlify.app</text>
</svg>